<svg width="70" height="67" viewBox="0 0 70 67" fill="none" xmlns="http://www.w3.org/2000/svg">
<path d="M69.9998 25.7452C69.9689 30.3166 68.9799 34.75 66.4147 38.4244C65.3794 39.8907 64.2668 41.4087 63.0923 42.944C56.4939 51.6901 47.4848 60.9709 40.2374 66.5601C39.4802 67.1466 38.3058 67.1466 37.5486 66.5601C30.3011 60.9709 21.292 51.6728 14.7091 42.944C13.6583 41.564 12.6693 40.2185 11.7266 38.8902C7.168 31.9037 6.17901 21.3636 11.3867 13.6871C14.57 9.46072 19.4068 7.85642 23.7954 7.87367C27.8905 7.92542 31.7537 9.06396 34.937 11.9448C36.2042 13.1178 37.5331 14.3771 38.893 15.7054C40.0983 14.5324 41.2882 13.3938 42.4317 12.3416C48.412 7.1319 57.931 6.02786 64.8694 11.9621C68.6554 15.5502 70.0153 20.8461 69.9998 25.7625V25.7452Z" fill="url(#paint0_linear_241_38)"/>
<path fill-rule="evenodd" clip-rule="evenodd" d="M52.3716 12.4163C52.2665 11.8962 52.6054 11.3866 53.1285 11.2782C54.9994 10.8904 59.4204 10.9912 62.4447 14.5064C62.7906 14.9084 62.7417 15.516 62.3354 15.8633C61.9292 16.2107 61.3195 16.1664 60.9736 15.7644C58.5604 12.9595 54.9661 12.8598 53.509 13.1618C52.9859 13.2702 52.4767 12.9364 52.3716 12.4163Z" fill="white"/>
<g filter="url(#filter0_d_241_38)">
<path d="M29.0611 13.4216V18.6711C29.0611 19.3813 28.4758 19.968 27.7673 19.968H19.9428V27.8112C19.9428 28.5215 19.3575 29.1082 18.649 29.1082H13.4121C12.7036 29.1082 12.1183 28.5215 12.1183 27.8112V19.968H4.29381C3.56989 19.968 3 19.3813 3 18.6711V13.4371C3 12.7114 3.5853 12.1402 4.29381 12.1402H12.1183V4.31236C12.1183 3.5867 12.7036 3 13.4275 3H18.6336C19.3575 3 19.9428 3.5867 19.9428 4.31236V12.1402H27.7673C28.4758 12.1402 29.0611 12.7269 29.0611 13.4371V13.4216Z" fill="url(#paint1_linear_241_38)"/>
</g>
<path d="M27.016 13.5347C27.5359 13.5347 27.9573 13.9571 27.9573 14.4782C27.9573 14.9993 27.5359 15.4217 27.016 15.4217L25.1335 15.4217C24.6137 15.4217 24.1923 14.9993 24.1923 14.4782C24.1923 13.9571 24.6137 13.5347 25.1335 13.5347L27.016 13.5347Z" fill="white"/>
<defs>
<filter id="filter0_d_241_38" x="0.61062" y="0.61062" width="34.0256" height="34.0728" filterUnits="userSpaceOnUse" color-interpolation-filters="sRGB">
<feFlood flood-opacity="0" result="BackgroundImageFix"/>
<feColorMatrix in="SourceAlpha" type="matrix" values="0 0 0 0 0 0 0 0 0 0 0 0 0 0 0 0 0 0 127 0" result="hardAlpha"/>
<feOffset dx="1.59292" dy="1.59292"/>
<feGaussianBlur stdDeviation="1.99115"/>
<feComposite in2="hardAlpha" operator="out"/>
<feColorMatrix type="matrix" values="0 0 0 0 0 0 0 0 0 0 0 0 0 0 0 0 0 0 0.1 0"/>
<feBlend mode="normal" in2="BackgroundImageFix" result="effect1_dropShadow_241_38"/>
<feBlend mode="normal" in="SourceGraphic" in2="effect1_dropShadow_241_38" result="shape"/>
</filter>
<linearGradient id="paint0_linear_241_38" x1="38.9387" y1="7.87354" x2="38.9387" y2="66.9999" gradientUnits="userSpaceOnUse">
<stop stop-color="#60BDFF"/>
<stop offset="0.336538" stop-color="#1899F5"/>
<stop offset="1" stop-color="#0E598F"/>
</linearGradient>
<linearGradient id="paint1_linear_241_38" x1="16.0306" y1="3" x2="16.0306" y2="29.1082" gradientUnits="userSpaceOnUse">
<stop offset="0.505" stop-color="#F98074"/>
<stop offset="0.85" stop-color="#934C44"/>
</linearGradient>
</defs>
</svg>
