<svg width="51" height="64" viewBox="0 0 51 64" fill="none" xmlns="http://www.w3.org/2000/svg">
<path d="M25.3723 20.9333C31.1986 20.9333 35.9217 16.2472 35.9217 10.4667C35.9217 4.68609 31.1986 0 25.3723 0C19.546 0 14.8229 4.68609 14.8229 10.4667C14.8229 16.2472 19.546 20.9333 25.3723 20.9333Z" fill="url(#paint0_linear_241_59)"/>
<path d="M25.3723 23.9733C36.1232 23.9733 44.8584 32.64 44.8584 43.3067V60.8C44.8584 62.5673 43.4136 64 41.6314 64H9.11311C7.33089 64 5.88611 62.5673 5.88611 60.8V43.3067C5.88611 32.64 14.6213 23.9733 25.3723 23.9733Z" fill="url(#paint1_linear_241_59)"/>
<path d="M5.21422 11.3067C6.10118 13.7067 8.00948 15.5867 10.4284 16.48C8.00948 17.36 6.11462 19.2534 5.21422 21.6534C4.31383 19.2534 2.41897 17.36 0 16.48C2.41897 15.6 4.31383 13.7067 5.21422 11.3067Z" fill="url(#paint2_linear_241_59)"/>
<path d="M45.7858 8.42664C46.6727 10.8266 48.581 12.7066 51 13.6C48.581 14.48 46.6862 16.3733 45.7858 18.7733C44.8988 16.3733 42.9905 14.4933 40.5716 13.6C42.9905 12.72 44.8854 10.8266 45.7858 8.42664Z" fill="url(#paint3_linear_241_59)"/>
<path d="M39.4964 18.32C39.9802 19.6267 41.0284 20.6667 42.3454 21.1467C41.0284 21.6267 39.9802 22.6667 39.4964 23.9733C39.0126 22.6667 37.9644 21.6267 36.6474 21.1467C37.9644 20.6667 39.0126 19.6267 39.4964 18.32Z" fill="url(#paint4_linear_241_59)"/>
<path fill-rule="evenodd" clip-rule="evenodd" d="M26.1882 2.57648C26.3573 2.0735 26.9056 1.80166 27.4128 1.96932C29.2269 2.56897 33.0052 4.86677 33.8668 9.42314C33.9653 9.94426 33.6192 10.4459 33.0937 10.5436C32.5682 10.6413 32.0623 10.2981 31.9637 9.77698C31.2763 6.14135 28.2134 4.25781 26.8005 3.7908C26.2933 3.62313 26.0192 3.07947 26.1882 2.57648Z" fill="white"/>
<defs>
<linearGradient id="paint0_linear_241_59" x1="25.3723" y1="0" x2="25.3723" y2="64" gradientUnits="userSpaceOnUse">
<stop stop-color="#54B8FF"/>
<stop offset="0.372508" stop-color="#1899F5"/>
<stop offset="1" stop-color="#0E598F"/>
</linearGradient>
<linearGradient id="paint1_linear_241_59" x1="25.3723" y1="23.9734" x2="25.3723" y2="64.0001" gradientUnits="userSpaceOnUse">
<stop stop-color="#1899F5"/>
<stop offset="0.754808" stop-color="#0E598F"/>
</linearGradient>
<linearGradient id="paint2_linear_241_59" x1="25.5" y1="8.42664" x2="25.5" y2="34.5" gradientUnits="userSpaceOnUse">
<stop stop-color="#F98074"/>
<stop offset="1" stop-color="#934C44"/>
</linearGradient>
<linearGradient id="paint3_linear_241_59" x1="25.5" y1="8.42664" x2="25.5" y2="34.5" gradientUnits="userSpaceOnUse">
<stop stop-color="#F98074"/>
<stop offset="1" stop-color="#934C44"/>
</linearGradient>
<linearGradient id="paint4_linear_241_59" x1="25.5" y1="8.42664" x2="25.5" y2="34.5" gradientUnits="userSpaceOnUse">
<stop stop-color="#F98074"/>
<stop offset="1" stop-color="#934C44"/>
</linearGradient>
</defs>
</svg>
