<svg width="57" height="64" viewBox="0 0 57 64" fill="none" xmlns="http://www.w3.org/2000/svg">
<path fill-rule="evenodd" clip-rule="evenodd" d="M33.9208 64H35.2356V64H30.0705L30.0705 63.9999H30.1156C30.553 60.6457 29.8969 57.5218 27.9287 54.7435C25.319 51.0582 21.6741 49.1148 17.1107 49.014C15.0204 48.966 12.9236 48.982 10.8291 48.998C10.6691 48.9992 10.5091 49.0005 10.3491 49.0017V45.2389L11.2507 45.236C13.193 45.2296 15.1332 45.2232 17.0669 45.2424C21.4699 45.2856 25.3481 46.754 28.5556 49.7339C32.6961 53.5919 34.504 58.3713 33.9354 63.9856L33.9208 64Z" fill="url(#paint0_linear_241_9)"/>
<path d="M33.9343 63.9999H44.0711C45.165 63.4961 45.5005 62.6467 45.4859 61.4807C45.4422 57.5507 45.4859 53.6063 45.4567 49.6618C45.4567 47.848 45.9381 46.1781 47.032 44.7529C47.7612 43.8028 48.6363 42.9391 49.5115 42.0897C54.1058 37.5695 56.6145 32.1135 56.9646 25.7362C57.2125 21.0145 56.1624 16.523 53.712 12.449C48.9572 4.5746 41.9271 0.284687 32.6071 0.0111689C25.8103 -0.190371 19.9907 2.34327 15.1484 6.99307C11.8229 10.1889 9.40178 13.9462 8.16203 18.4088C7.54944 20.597 7.76822 22.8283 7.70988 25.0596C7.70988 25.4051 7.5932 25.8082 7.40359 26.0961C5.09911 29.5799 2.76545 33.0492 0.431799 36.5186C-0.00576103 37.1808 -0.1662 37.843 0.213019 38.5772C0.606823 39.3257 1.24858 39.6137 2.07994 39.6281C3.29053 39.6568 4.39901 40.0455 5.36164 40.7797C6.82018 41.8882 7.52027 43.3997 7.62237 45.2424C7.88491 45.2424 8.10369 45.2424 8.33705 45.2424C11.2541 45.2424 14.1712 45.2136 17.0737 45.2424C21.4784 45.2856 25.3581 46.7539 28.5669 49.7338C32.7092 53.5919 34.5177 58.3712 33.9489 63.9855L33.9343 63.9999Z" fill="url(#paint1_linear_241_9)"/>
<path d="M30.1277 63.9999C30.5652 60.6457 29.9089 57.5218 27.9399 54.7434C25.3291 51.0582 21.6828 49.1147 17.1175 49.014C13.9817 48.942 10.8313 49.014 7.69542 49.014C6.90781 53.3471 9.54776 56.3702 13.1795 56.4997C14.4484 56.5429 15.7174 56.4997 16.9717 56.4997C20.2242 56.5285 22.66 58.8318 22.7767 62.0421C22.8204 63.021 23.3747 63.5824 24.1769 63.9999H30.1277Z" fill="url(#paint2_linear_241_9)"/>
<path d="M40.9938 29.5512C41.0229 29.7383 41.0521 29.9255 41.0521 30.1126C41.0521 30.4005 40.8771 30.6021 40.6146 30.6021C40.3666 30.6021 40.177 30.4149 40.1624 30.127C40.1332 29.1049 39.4623 28.2844 38.4705 28.054C37.2891 27.7661 36.0785 28.5435 35.8451 29.7095C35.8014 29.8967 35.8014 29.8967 36.0056 29.8967C36.9682 29.8679 37.537 30.5301 37.6537 31.1491C37.8433 32.128 37.1287 32.9774 36.1223 33.0061C36.0056 33.0061 35.8597 32.963 35.8014 33.0349C35.7285 33.1069 35.7868 33.2509 35.7868 33.366C35.7868 33.7835 35.7868 34.201 35.7868 34.6041C35.816 35.439 36.6911 36.0868 37.5079 35.8997C38.0184 35.7845 38.383 35.3382 38.3976 34.8344C38.3976 34.6329 38.3976 34.4169 38.3976 34.2154C38.3976 33.9419 38.1934 33.7403 37.9163 33.7403C37.7996 33.7403 37.6683 33.7403 37.5516 33.7403C37.3183 33.7403 37.1432 33.5532 37.1287 33.3372C37.1141 33.1213 37.2599 32.9054 37.4641 32.8766C37.8871 32.8334 38.3101 32.8334 38.6747 33.0925C39.0248 33.3229 39.2435 33.654 39.2873 34.0714C39.331 34.5177 39.3456 34.9784 39.2144 35.4246C38.8206 36.6483 37.4058 37.2097 36.2098 36.5907C35.3638 36.1588 34.9263 35.4534 34.8971 34.5033C34.8971 34.201 34.8971 33.8987 34.8971 33.5964C34.8971 33.2797 34.8971 32.9486 34.8971 32.6319C34.8971 32.3152 35.0867 32.1424 35.393 32.1424C35.641 32.1424 35.8743 32.1424 36.1223 32.1424C36.5161 32.1424 36.8224 31.8401 36.8078 31.4658C36.8078 31.0915 36.5161 30.818 36.1223 30.8036C35.8743 30.8036 35.6264 30.8036 35.3784 30.8036C35.1159 30.8036 34.9263 30.6309 34.9263 30.3861C34.9117 29.2633 35.3201 28.342 36.2681 27.6797C38.0475 26.4273 40.6146 27.4494 41.0375 29.5656L40.9938 29.5512Z" fill="white"/>
<path d="M42.8607 28.9466C42.394 26.341 39.8561 24.5559 37.2016 25.0166C35.4222 25.3189 34.1824 26.341 33.4531 27.9677C33.1468 28.6731 33.0885 29.4361 33.0739 30.1846C33.0448 31.3939 33.0739 32.5887 33.1468 33.7979C33.176 34.3882 33.1468 34.9928 33.2198 35.583C33.4969 37.9295 35.7285 39.4842 38.0621 38.9516C39.7978 38.5485 41.0521 37.0802 41.1396 35.3095C41.1834 34.2874 41.4751 33.3661 42.0877 32.5167C42.6711 31.7106 42.9336 30.7892 42.9336 29.8103C42.9336 29.5224 42.919 29.2345 42.8607 28.9466ZM41.3292 32.0561C40.6583 33.0062 40.3228 34.0427 40.2645 35.1943C40.1916 36.6627 39.2144 37.8143 37.7704 38.1166C36.0785 38.4765 34.4304 37.3393 34.1387 35.655C34.0657 35.1943 34.0949 34.7481 34.0657 34.2874C34.0366 33.6828 34.022 33.0782 33.9928 32.4735C33.9636 31.581 33.949 30.6885 33.9928 29.7815C34.0511 28.3852 34.62 27.2479 35.8014 26.4849C38.1496 24.959 41.3876 26.2114 41.9564 29.0186C42.1752 30.1126 41.9564 31.1347 41.3146 32.0561H41.3292Z" fill="white"/>
<defs>
<linearGradient id="paint0_linear_241_9" x1="22.7924" y1="45.2296" x2="22.7924" y2="64" gradientUnits="userSpaceOnUse">
<stop offset="0.25" stop-color="#F98074"/>
<stop offset="1" stop-color="#934C44"/>
</linearGradient>
<linearGradient id="paint1_linear_241_9" x1="28.5" y1="0" x2="28.5" y2="63.9999" gradientUnits="userSpaceOnUse">
<stop stop-color="#60BDFF"/>
<stop offset="0.399038" stop-color="#1899F5"/>
<stop offset="1" stop-color="#0E598F"/>
</linearGradient>
<linearGradient id="paint2_linear_241_9" x1="28.5" y1="0" x2="28.5" y2="63.9999" gradientUnits="userSpaceOnUse">
<stop stop-color="#60BDFF"/>
<stop offset="0.399038" stop-color="#1899F5"/>
<stop offset="1" stop-color="#0E598F"/>
</linearGradient>
</defs>
</svg>
