<svg width="57" height="64" viewBox="0 0 57 64" fill="none" xmlns="http://www.w3.org/2000/svg">
<path d="M0.00124981 35.1564C0.00124981 27.2787 -0.00257773 19.401 0.00316358 11.5232C0.00316358 9.05739 1.40787 7.1597 3.66804 6.59154C4.16945 6.46528 4.70722 6.43276 5.22776 6.43276C20.7485 6.42511 36.2692 6.4232 51.7879 6.42894C54.9973 6.42894 56.9972 8.45671 56.9991 11.6839C57.0011 27.3686 56.9991 43.0532 56.9991 58.736C56.9991 61.6418 54.6414 63.9986 51.7344 63.9986C36.2385 64.0006 20.7427 64.0006 5.2469 63.9986C1.98583 63.9986 0.00124981 61.9976 0.00124981 58.7207C0.00124981 50.8659 0.00124981 43.0131 0.00124981 35.1583V35.1564ZM33.1727 22.4981C32.8263 23.3628 32.5947 24.0974 32.2368 24.765C32.0723 25.0711 31.678 25.4001 31.3584 25.4307C31.0809 25.4575 30.7307 25.1151 30.4781 24.8702C30.3001 24.698 30.2255 24.4168 30.1068 24.1835C29.6284 23.2346 29.1499 22.2858 28.6045 21.2011C28.4858 21.5837 28.415 21.7999 28.3519 22.0199C27.5577 24.7172 26.7596 27.4145 25.9769 30.1137C25.82 30.6513 25.6286 31.1295 24.9741 31.1448C24.3444 31.1601 24.1473 30.6896 23.9693 30.1998C23.0029 27.5331 22.0307 24.8702 21.0585 22.2054C20.9839 21.9988 20.8901 21.7979 20.7561 21.4823C20.1628 22.5976 19.6021 23.5675 19.1275 24.5775C18.7945 25.2892 18.2969 25.5264 17.541 25.5187C14.6761 25.4939 11.8111 25.5092 8.94431 25.5092H8.02953C8.02953 25.8305 8.02953 26.062 8.02953 26.2954C8.02953 28.6828 8.02953 31.0702 8.02953 33.4577C8.02953 35.583 9.11846 36.6811 11.2485 36.6811C22.7579 36.6849 34.2674 36.6849 45.7768 36.6811C47.8647 36.6811 48.967 35.5753 48.9728 33.5055C48.9785 30.6169 48.9785 27.7282 48.9824 24.8396C48.9824 24.612 48.9824 24.3862 48.9824 24.1261C46.5806 24.1261 44.2898 24.1146 42.0009 24.1471C41.7923 24.1509 41.5167 24.4034 41.3942 24.612C40.4297 26.2571 39.5149 27.9329 38.5332 29.5685C38.3494 29.8727 37.9169 30.2381 37.6299 30.2151C37.293 30.1883 36.8777 29.8287 36.6921 29.5016C36.1141 28.4877 35.63 27.4222 35.1094 26.3777C34.4836 25.1227 33.8597 23.8678 33.1765 22.4981H33.1727ZM48.9728 22.259C48.9728 20.0724 48.9728 17.9987 48.9728 15.925C48.9728 13.5969 47.9317 12.5486 45.6218 12.5486C34.2119 12.5486 22.8 12.5486 11.3901 12.5486C11.1509 12.5486 10.9117 12.541 10.6744 12.5601C9.17779 12.6902 8.0678 13.7768 8.04484 15.2708C8.00656 17.9662 8.03718 20.6635 8.04484 23.3609C8.04484 23.4259 8.0946 23.489 8.11947 23.5541C8.19794 23.5732 8.26684 23.6038 8.33573 23.6038C11.2006 23.6096 14.0656 23.6229 16.9286 23.5942C17.1582 23.5923 17.474 23.3398 17.6003 23.1179C18.3677 21.7731 19.095 20.4034 19.8279 19.0394C20.0595 18.6071 20.2911 18.1958 20.8824 18.2264C21.5121 18.2608 21.692 18.7314 21.8661 19.2116C22.7369 21.6066 23.6076 24.0036 24.4803 26.3987C24.5569 26.6091 24.6526 26.8138 24.8057 27.1792C25.1616 25.9912 25.4697 24.9735 25.7721 23.9558C26.308 22.1519 26.84 20.346 27.3778 18.542C27.5137 18.0829 27.7376 17.7022 28.2849 17.664C28.8246 17.6257 29.1136 17.9471 29.3183 18.3909C29.4274 18.6281 29.5384 18.8672 29.6513 19.1025C30.1374 20.1183 30.6235 21.1341 31.1651 22.2628C31.5364 21.3713 31.7316 20.1757 32.5277 19.5387C32.6751 19.4201 32.8626 19.3397 33.0502 19.3608C33.9382 19.4545 34.3439 20.7955 34.6692 21.4479C34.9908 22.0945 35.3142 22.7391 35.6357 23.3857C35.9572 24.0323 36.2864 24.6904 36.6117 25.3427C36.7763 25.6737 36.9409 26.0027 37.1055 26.3337C37.1667 26.458 37.6586 27.2404 37.605 27.3342C38.1944 26.3145 38.7264 25.3599 39.2891 24.4245C40.8565 21.819 40.0221 22.3011 43.0133 22.2628C44.9653 22.2379 46.9193 22.259 48.9651 22.259H48.9728ZM43.1549 52.0348C43.1511 50.1658 41.7024 48.7157 39.8422 48.7215C37.9992 48.7253 36.518 50.2174 36.5314 52.0501C36.5467 53.8693 38.0681 55.3615 39.8938 55.3462C41.689 55.3309 43.1568 53.8387 43.153 52.0348H43.1549ZM13.8627 51.9965C13.8531 53.9095 15.4205 55.4361 17.3496 55.3404C19.0242 55.2582 20.3944 53.8827 20.4729 52.2069C20.5628 50.2978 19.0931 48.7444 17.208 48.7215C15.3497 48.6985 13.8704 50.1466 13.8627 51.9965ZM31.8196 52.0558C31.833 50.1983 30.3843 48.7253 28.5337 48.7195C26.7156 48.7138 25.2343 50.1505 25.2056 51.9506C25.1769 53.8215 26.6754 55.3519 28.5299 55.3442C30.3192 55.3385 31.8062 53.8521 31.8196 52.0577V52.0558Z" fill="url(#paint0_linear_241_44)"/>
<path d="M6.9853 4.90803C7.03123 3.95536 6.98147 2.99886 7.14414 2.08063C7.35466 0.888829 8.3747 0.068154 9.57846 0.0337201C11.0559 -0.00836584 12.5372 -0.0160178 14.0127 0.0394591C15.3676 0.09111 16.4202 1.18152 16.491 2.53783C16.5312 3.29729 16.4987 4.06058 16.4987 4.90803H6.9853Z" fill="url(#paint1_linear_241_44)"/>
<path d="M49.871 4.90801H40.572C40.572 3.95534 40.4667 2.99884 40.5988 2.07678C40.7634 0.944285 41.8178 0.0815236 42.9699 0.0413507C44.4703 -0.00838725 45.9765 -0.0160392 47.4769 0.0470896C48.7342 0.0987405 49.7638 1.14515 49.8576 2.4039C49.9169 3.20927 49.8691 4.0223 49.8691 4.90993L49.871 4.90801Z" fill="url(#paint2_linear_241_44)"/>
<path d="M33 51.5C33 53.9853 30.9853 56 28.5 56C26.0147 56 24 53.9853 24 51.5C24 49.0147 26.0147 47 28.5 47C30.9853 47 33 49.0147 33 51.5Z" fill="url(#paint3_linear_241_44)"/>
<path d="M21 51.5C21 53.9853 18.9853 56 16.5 56C14.0147 56 12 53.9853 12 51.5C12 49.0147 14.0147 47 16.5 47C18.9853 47 21 49.0147 21 51.5Z" fill="url(#paint4_linear_241_44)"/>
<path d="M45 51.5C45 53.9853 42.9853 56 40.5 56C38.0147 56 36 53.9853 36 51.5C36 49.0147 38.0147 47 40.5 47C42.9853 47 45 49.0147 45 51.5Z" fill="url(#paint5_linear_241_44)"/>
<defs>
<linearGradient id="paint0_linear_241_44" x1="28.5" y1="0" x2="28.5" y2="64.0001" gradientUnits="userSpaceOnUse">
<stop stop-color="#60BDFF"/>
<stop offset="0.283654" stop-color="#1899F5"/>
<stop offset="1" stop-color="#0E598F"/>
</linearGradient>
<linearGradient id="paint1_linear_241_44" x1="28.5" y1="0" x2="28.5" y2="64.0001" gradientUnits="userSpaceOnUse">
<stop stop-color="#60BDFF"/>
<stop offset="0.283654" stop-color="#1899F5"/>
<stop offset="1" stop-color="#0E598F"/>
</linearGradient>
<linearGradient id="paint2_linear_241_44" x1="28.5" y1="0" x2="28.5" y2="64.0001" gradientUnits="userSpaceOnUse">
<stop stop-color="#60BDFF"/>
<stop offset="0.283654" stop-color="#1899F5"/>
<stop offset="1" stop-color="#0E598F"/>
</linearGradient>
<linearGradient id="paint3_linear_241_44" x1="28.5" y1="47" x2="28.5" y2="59.5" gradientUnits="userSpaceOnUse">
<stop stop-color="#F98074"/>
<stop offset="1" stop-color="#934C44"/>
</linearGradient>
<linearGradient id="paint4_linear_241_44" x1="28.5" y1="47" x2="28.5" y2="59.5" gradientUnits="userSpaceOnUse">
<stop stop-color="#F98074"/>
<stop offset="1" stop-color="#934C44"/>
</linearGradient>
<linearGradient id="paint5_linear_241_44" x1="28.5" y1="47" x2="28.5" y2="59.5" gradientUnits="userSpaceOnUse">
<stop stop-color="#F98074"/>
<stop offset="1" stop-color="#934C44"/>
</linearGradient>
</defs>
</svg>
