<svg width="72" height="64" viewBox="0 0 72 64" fill="none" xmlns="http://www.w3.org/2000/svg">
<path d="M40.5189 31.5222C40.4439 33.4024 40.8039 35.4782 41.3289 37.5239C42.3339 41.4499 42.8589 45.4511 43.0989 49.4974C43.3539 53.649 43.669 57.7856 43.969 61.9372C44.044 62.945 43.744 63.6219 43.0239 63.8926C42.2889 64.1784 41.6289 63.8926 41.0739 63.0352C40.8489 62.6893 40.5489 62.5238 40.2039 62.4336C37.3839 61.7115 34.5488 61.7115 31.7288 62.4336C31.2938 62.5389 31.0088 62.7946 30.7838 63.2007C30.4238 63.8776 29.8088 64.1333 29.0737 63.9227C28.3387 63.7121 27.9637 63.1706 28.0087 62.4035C28.1287 60.2224 28.2337 58.0262 28.3837 55.8452C28.5787 53.1075 28.8037 50.3548 28.9987 47.6172C29.2537 43.9319 29.8988 40.3218 30.8138 36.7568C33.5588 26.0318 27.8437 16.5253 19.8636 12.3436C17.5236 11.1252 15.0335 10.5536 12.3935 11.1402C11.8385 11.2605 11.3285 11.4862 10.8485 11.772C8.82346 12.9302 8.13345 14.5999 8.82346 16.8261C9.31846 18.4356 10.2485 19.8044 11.2985 21.098C11.5385 21.3838 11.8085 21.444 12.1835 21.429C16.7136 21.3237 21.1236 25.5956 21.2436 30.1533C21.3486 34.5306 17.5836 37.4788 13.1285 36.3507C9.28846 35.388 6.87343 32.876 6.03342 28.95C5.94342 28.4987 5.76341 28.1828 5.38841 27.9271C2.02836 25.5204 0.498338 22.1359 0.0783321 18.1047C-0.116671 16.1492 0.0783321 14.2389 0.378336 12.3285C1.02335 8.14685 3.49838 5.54457 7.36844 4.14566C10.7135 2.92726 14.1785 2.91222 17.6586 3.24314C21.4836 3.60415 25.0987 4.74735 28.7437 5.89054C33.8738 7.50004 39.0339 7.36466 44.104 5.61978C48.379 4.14566 52.7141 3.10776 57.2441 3.06264C60.7842 3.01751 64.2492 3.46877 67.2943 5.49945C69.2143 6.76298 70.5943 8.47777 71.1943 10.719C72.2744 14.7503 72.3944 18.7665 70.7743 22.7075C69.9193 24.7984 68.5843 26.5583 66.7243 27.867C66.2593 28.1979 66.0193 28.5739 65.9143 29.1606C65.2093 33.0264 61.6842 36.2454 57.7991 36.6214C52.8191 37.1028 49.519 32.6654 51.1991 27.8068C52.4141 24.287 56.0441 21.444 59.7342 21.5343C60.0192 21.5343 60.3192 21.5493 60.5142 21.3086C61.8642 19.6991 63.0492 18.0144 63.3492 15.8634C63.5892 14.1637 62.8692 12.9152 61.4742 12.0277C59.1792 10.5536 56.7191 10.719 54.2741 11.5012C50.254 12.7948 47.194 15.4272 44.704 18.7515C41.9439 22.4669 40.4289 26.6185 40.5189 31.5523V31.5222Z" fill="url(#paint0_linear_241_55)"/>
<path d="M25.4286 57.7857C25.1586 57.7556 25.1286 57.4849 25.0386 57.3044C23.3586 53.6642 22.0086 49.9338 21.5736 45.9176C21.2286 42.7437 21.4986 39.645 22.9986 36.7419C24.7536 33.3274 24.8136 29.8677 23.1336 26.378C21.7686 23.535 21.0786 20.5116 20.8236 17.3828C20.7936 17.0669 20.6436 16.6157 20.9886 16.4653C21.3186 16.2998 21.5886 16.6909 21.8286 16.9015C26.5536 21.038 29.1487 26.1222 28.7887 32.5302C28.6687 34.6962 28.0237 36.772 27.5587 38.8779C26.7036 42.7738 26.3286 46.7449 26.0886 50.716C25.9536 52.9873 25.7586 55.2436 25.5936 57.515C25.5936 57.6203 25.5936 57.7406 25.4286 57.7857Z" fill="url(#paint1_linear_241_55)"/>
<path d="M50.104 17.0369C50.254 18.1199 50.059 19.0826 49.894 20.0302C49.504 22.3467 48.784 24.5428 47.779 26.6638C46.249 29.8828 46.249 33.192 47.869 36.3358C50.044 40.5776 50.284 44.9699 49.369 49.5126C48.844 52.1149 47.989 54.5968 46.939 57.0336C46.849 57.2593 46.789 57.515 46.414 57.7105C46.339 57.0938 46.249 56.5222 46.204 55.9656C45.874 51.4079 45.694 46.8351 45.019 42.3075C44.629 39.6601 43.834 37.1029 43.4139 34.4856C42.3039 27.5512 44.629 21.8503 49.774 17.2174C49.834 17.1572 49.924 17.1422 50.104 17.0519V17.0369Z" fill="url(#paint2_linear_241_55)"/>
<path d="M35.9738 4.25115C33.2438 4.32636 30.6337 3.78485 28.0837 2.86729C27.8887 2.79208 27.5737 2.79208 27.5287 2.5514C27.4687 2.23552 27.7987 2.14527 27.9937 2.03997C33.1838 -0.757845 38.3138 -0.682635 43.3989 2.29569C43.5789 2.40098 43.8789 2.50628 43.8339 2.74695C43.7889 2.98762 43.5039 3.00266 43.2939 3.07787C40.9089 3.86006 38.4788 4.32636 35.9588 4.25115H35.9738Z" fill="url(#paint3_linear_241_55)"/>
<path fill-rule="evenodd" clip-rule="evenodd" d="M12.0499 23.6567C12.219 23.1537 12.7673 22.8819 13.2745 23.0495C15.0886 23.6492 18.8669 25.947 19.7285 30.5033C19.827 31.0245 19.4809 31.5261 18.9554 31.6238C18.4299 31.7215 17.924 31.3783 17.8254 30.8572C17.138 27.2215 14.0751 25.338 12.6622 24.871C12.155 24.7033 11.8809 24.1597 12.0499 23.6567Z" fill="white"/>
<path fill-rule="evenodd" clip-rule="evenodd" d="M52.6567 30.6953C52.1537 30.5262 51.8819 29.978 52.0495 29.4707C52.6492 27.6566 54.947 23.8783 59.5033 23.0168C60.0245 22.9182 60.5261 23.2644 60.6238 23.7899C60.7215 24.3154 60.3783 24.8213 59.8572 24.9198C56.2215 25.6072 54.338 28.6701 53.871 30.083C53.7033 30.5902 53.1597 30.8644 52.6567 30.6953Z" fill="white"/>
<defs>
<linearGradient id="paint0_linear_241_55" x1="36" y1="0" x2="36" y2="63.9998" gradientUnits="userSpaceOnUse">
<stop stop-color="#60BDFF"/>
<stop offset="0.225962" stop-color="#1899F5"/>
<stop offset="1" stop-color="#0E598F"/>
</linearGradient>
<linearGradient id="paint1_linear_241_55" x1="36" y1="0" x2="36" y2="63.9998" gradientUnits="userSpaceOnUse">
<stop stop-color="#60BDFF"/>
<stop offset="0.225962" stop-color="#1899F5"/>
<stop offset="1" stop-color="#0E598F"/>
</linearGradient>
<linearGradient id="paint2_linear_241_55" x1="36" y1="0" x2="36" y2="63.9998" gradientUnits="userSpaceOnUse">
<stop stop-color="#60BDFF"/>
<stop offset="0.225962" stop-color="#1899F5"/>
<stop offset="1" stop-color="#0E598F"/>
</linearGradient>
<linearGradient id="paint3_linear_241_55" x1="36" y1="0" x2="36" y2="63.9998" gradientUnits="userSpaceOnUse">
<stop stop-color="#60BDFF"/>
<stop offset="0.225962" stop-color="#1899F5"/>
<stop offset="1" stop-color="#0E598F"/>
</linearGradient>
</defs>
</svg>
