<svg width="88" height="22" viewBox="0 0 88 22" fill="none" xmlns="http://www.w3.org/2000/svg">
<path fill-rule="evenodd" clip-rule="evenodd" d="M5.358 0.0163764C5.35228 0.0252555 5.35636 0.512119 5.36711 1.09832C5.37784 1.68452 5.40097 3.0053 5.41851 4.0334C5.43606 5.0615 5.45677 6.19102 5.46456 6.54344L5.47873 7.1842L5.27896 7.21006C3.92987 7.38472 2.64138 7.74114 1.73547 8.19025C0.944032 8.58261 0.422939 9.04117 0.162977 9.57408C0.0580064 9.78927 0.0254659 9.94917 0.0406316 10.1753C0.0706869 10.6231 0.290484 11.0298 0.735493 11.461C1.00527 11.7224 1.10283 11.799 1.44083 12.0147C2.38422 12.6169 3.85598 13.0633 5.27565 13.1778C5.43553 13.1907 5.45086 13.1958 5.45063 13.2351C5.44986 13.3646 5.38385 18.728 5.36709 20.0227C5.35626 20.8603 5.35211 21.5529 5.35791 21.5618C5.36369 21.5708 6.12295 21.5781 7.04517 21.5781H8.72192L8.72166 21.4207C8.72152 21.334 8.71213 20.5317 8.70081 19.6377C8.68946 18.7437 8.67064 17.1986 8.65898 16.204C8.64732 15.2094 8.63146 14.1115 8.6237 13.7641L8.60962 13.1325L8.77729 13.1068C8.8695 13.0927 9.03097 13.0679 9.13611 13.0517C10.1 12.9032 11.1567 12.6178 12.0538 12.2635C12.9456 11.9114 13.7197 11.4901 14.4461 10.9616L14.7051 10.7732L15.0111 11.0426C15.4223 11.4047 15.8552 11.8628 16.2118 12.313C17.1413 13.4866 17.8701 14.8866 18.3855 16.4884C18.8634 17.9741 19.1595 19.6507 19.2079 21.1464L19.2213 21.5578H20.9093H22.5973L22.5835 20.547C22.5759 19.991 22.5558 18.3704 22.5389 16.9456C22.5221 15.5208 22.4968 13.5504 22.4828 12.567C22.4492 10.2025 22.4487 7.91823 22.4814 6.36999C22.4961 5.67714 22.522 4.2828 22.5389 3.27147C22.5559 2.26013 22.576 1.11033 22.5835 0.716337L22.5972 0L20.9113 0.00520145L19.2253 0.0104029L19.2301 0.274539C19.2328 0.419814 19.2499 1.46671 19.2682 2.60097C19.2865 3.73523 19.311 5.13871 19.3227 5.71981C19.3554 7.35269 19.3707 10.0493 19.3531 11.0788L19.3372 12.0084L19.0254 11.7188C18.2695 11.0166 17.0264 10.0786 16.2438 9.61998L16.0342 9.49718L16.0857 9.43711C16.2946 9.19358 16.7026 8.60907 16.8933 8.27989C17.0172 8.06611 17.225 7.65735 17.2782 7.52257L17.3206 7.41544L17.2428 7.38437C17.2 7.36728 17.026 7.29434 16.8562 7.22229C16.6863 7.15024 16.5382 7.09148 16.527 7.09175C16.5157 7.09201 16.4524 7.17201 16.3861 7.26953C16.1943 7.55185 16.0028 7.76958 15.648 8.10829C15.3467 8.39607 14.9413 8.72939 14.8127 8.79528C14.7672 8.81855 14.7427 8.81314 14.5932 8.74689C12.6825 7.89999 11.0568 7.45152 9.10833 7.23394C8.90612 7.21134 8.70748 7.19287 8.66691 7.19287H8.59314L8.60459 6.67984C8.61865 6.05004 8.65153 4.24719 8.67916 2.59081C8.69053 1.90913 8.7059 1.0474 8.71334 0.675823L8.72685 0.000243818H7.04764C6.12408 0.000243818 5.36373 0.0074974 5.358 0.0163764ZM60.7401 0.15771C60.7401 0.233151 60.7545 1.14974 60.7719 2.19461C60.8028 4.04551 60.8217 5.12001 60.8687 7.71674C60.8851 8.62232 60.8851 9.48909 60.8687 10.7645C60.821 14.4728 60.8027 15.936 60.7719 18.5202C60.7544 19.9842 60.7401 21.2619 60.74 21.3597L60.7399 21.5375H62.43H64.1202L64.1086 21.4308C64.1023 21.3721 64.0917 20.803 64.0851 20.166C64.0726 18.9498 64.0301 15.4541 63.9873 12.1099C63.9617 10.1115 63.9702 7.52046 64.0091 5.44551C64.0201 4.85882 64.0439 3.45992 64.0621 2.33683C64.0802 1.21375 64.0987 0.233151 64.1032 0.15771L64.1115 0.020562H62.4257H60.7399L60.7401 0.15771ZM67.2395 1.42252V2.82447H68.9175H70.5955V1.42252V0.020562H68.9175H67.2395V1.42252ZM31.8103 5.32557C30.2806 5.46865 29.1129 5.84342 28.0086 6.54574C27.5802 6.81816 27.2878 7.04806 26.9019 7.41578C25.3102 8.93274 24.4626 11.0959 24.4614 13.6447C24.461 14.4281 24.5294 15.1303 24.6721 15.8078C24.845 16.6283 25.0966 17.33 25.4699 18.0326C26.4431 19.8643 28.1318 21.1564 30.2598 21.6975C31.6784 22.0582 33.3056 22.0979 34.8052 21.8083C36.6358 21.4548 38.2796 20.5609 39.2637 19.3838C39.9091 18.6118 40.2656 17.7766 40.3199 16.91L40.3342 16.6815H38.656H36.9779L36.9634 16.8897C36.8831 18.046 36.2449 19.1077 35.2619 19.7206C34.7666 20.0294 34.2334 20.2134 33.5202 20.3217C33.2893 20.3568 32.3567 20.3566 32.0546 20.3214C30.7438 20.1687 29.8357 19.7279 29.1546 18.9136C28.4884 18.1171 28.0853 16.9876 27.9011 15.4014C27.8817 15.2348 27.8178 14.4632 27.8173 14.3906C27.8172 14.3703 29.0829 14.3652 34.0755 14.3652H40.3339L40.3211 13.5779C40.3038 12.5169 40.2394 11.9329 40.0493 11.1143C39.7087 9.64688 39.0682 8.41269 38.1461 7.44685C37.0865 6.33693 35.658 5.63152 33.9903 5.39465C33.5257 5.32866 33.1163 5.30341 32.5538 5.30605C32.2442 5.30749 31.9096 5.31629 31.8103 5.32557ZM48.962 5.32582C47.8878 5.42166 47.1666 5.57762 46.3707 5.88623C45.5432 6.20712 44.8781 6.63181 44.2891 7.21534C43.4504 8.04628 42.9899 9.06399 42.8984 10.2888C42.8869 10.4439 42.8826 10.5787 42.8889 10.5885C42.8953 10.5985 43.6343 10.6063 44.5627 10.6063H46.225L46.2514 10.3574C46.3795 9.14693 46.8052 8.23873 47.5144 7.66285C47.9428 7.31498 48.4074 7.11455 49.0585 6.99668C49.3724 6.93985 50.3582 6.94507 50.7781 7.00576C51.439 7.10132 51.9243 7.26342 52.3384 7.527C52.9278 7.90214 53.2812 8.43823 53.4465 9.20791C53.4951 9.43445 53.5045 9.52844 53.5037 9.78344C53.5027 10.1216 53.4743 10.282 53.3696 10.5417C53.175 11.0245 52.7638 11.4556 52.1884 11.7801C51.3364 12.2606 50.1682 12.5765 48.2292 12.8507C46.9396 13.0331 46.0711 13.2356 45.245 13.5463C43.5646 14.1784 42.6031 15.1534 42.3128 16.5195C42.1552 17.2613 42.2105 18.164 42.4554 18.8453C43.0342 20.4557 44.3305 21.4991 46.2022 21.8611C47.2123 22.0565 48.6557 22.044 49.7586 21.8303C50.5407 21.6787 51.2988 21.4123 51.8979 21.0783C52.6681 20.6491 53.3758 20.0056 53.7828 19.3647C53.9097 19.1649 53.9302 19.1853 53.9601 19.5412C54.0267 20.3348 54.348 20.9438 54.9171 21.3552C55.0891 21.4794 55.4639 21.6582 55.6998 21.7283C56.1128 21.8511 56.2869 21.8723 56.8847 21.8725C57.2478 21.8725 57.4916 21.8634 57.5963 21.8458C57.9022 21.7944 58.0759 21.7598 58.3025 21.7053L58.5309 21.6504V20.7513V19.8521L58.4731 19.8731C58.3628 19.9132 57.9974 19.9544 57.8648 19.9416C57.3415 19.8913 57.1465 19.7796 57.0169 19.4559C56.9067 19.1808 56.9114 19.3703 56.8951 14.4973C56.8849 11.4433 56.8725 9.92317 56.8572 9.83397C56.7906 9.44585 56.7138 9.14325 56.6048 8.83864C56.4575 8.4271 56.1788 7.93215 55.8955 7.57892C55.6961 7.33026 55.2207 6.8781 54.9625 6.69144C53.8925 5.91791 52.5132 5.47229 50.7609 5.33398C50.3412 5.30087 49.295 5.29611 48.962 5.32582ZM67.2482 5.9687C67.2558 6.14472 67.2714 6.46243 67.2828 6.67476C67.3928 8.71344 67.3928 8.4871 67.283 17.1183C67.2711 18.057 67.2551 19.4353 67.2477 20.1813L67.2341 21.5375H68.9182H70.6022L70.5875 20.2016C70.5793 19.4668 70.5634 18.1068 70.5521 17.1792C70.4451 8.41438 70.4451 8.78728 70.5523 6.69508C70.5637 6.47158 70.5796 6.14472 70.5875 5.9687L70.602 5.64869H68.9182H67.2343L67.2482 5.9687ZM73.1792 5.67409C73.1881 5.68807 73.397 6.00121 73.6435 6.36999C73.8899 6.73876 74.2615 7.29649 74.4693 7.60939C74.6772 7.92229 75.0912 8.54403 75.3894 8.99103C75.6875 9.43803 76.1106 10.0735 76.3296 10.4031C76.5486 10.7328 77.0174 11.4368 77.3713 11.9676C77.7253 12.4985 78.1101 13.0765 78.2263 13.2523L78.4377 13.5717L78.1981 13.9329C78.0663 14.1315 77.5983 14.8381 77.1581 15.503C76.7179 16.1679 76.1003 17.1005 75.7855 17.5755C74.7845 19.086 74.5083 19.503 73.831 20.5267L73.1688 21.5273L74.8493 21.5325C75.7736 21.5354 76.5365 21.5308 76.5447 21.5224C76.5528 21.5139 76.7267 21.2281 76.9311 20.8873C77.1354 20.5465 77.4468 20.0279 77.6231 19.7348C77.7994 19.4418 78.0551 19.0167 78.1913 18.7901C78.7304 17.8936 78.9215 17.576 79.3965 16.7881C79.4824 16.6456 79.6702 16.3325 79.8138 16.0922C79.9573 15.852 80.0845 15.6436 80.0964 15.6291C80.1125 15.6095 80.1429 15.6452 80.217 15.7713C80.2715 15.864 80.9645 17.0233 81.757 18.3475C82.5495 19.6718 83.3025 20.9312 83.4305 21.1464L83.663 21.5375H85.3506C86.6947 21.5375 87.035 21.5323 87.0226 21.5121C87.0018 21.4781 86.2966 20.4061 85.6759 19.465C85.2412 18.8059 84.0714 17.0284 82.2956 14.3287C82.0288 13.9231 81.8105 13.5821 81.8105 13.5709C81.8105 13.5511 82.0765 13.1465 83.7192 10.6673C84.1597 10.0024 84.7866 9.05605 85.1121 8.56435C85.4377 8.07265 85.9932 7.23471 86.3467 6.70227C86.7001 6.16983 87.0001 5.71497 87.0132 5.69144L87.0371 5.64869H85.353H83.6689L83.4266 6.04998C82.9402 6.85577 82.7752 7.12883 82.5642 7.47733C82.4458 7.67289 82.2356 8.02033 82.0971 8.24942C81.9587 8.4785 81.7484 8.82594 81.6299 9.02151C81.5115 9.21707 81.3346 9.50965 81.237 9.67169C81.1393 9.83373 80.9624 10.1263 80.8439 10.3219C80.7253 10.5174 80.5144 10.8668 80.3751 11.0983C80.2358 11.3297 80.1171 11.5191 80.1112 11.5191C80.1054 11.5192 79.876 11.1478 79.6015 10.694C79.3269 10.2401 79.0627 9.80384 79.0142 9.72449C78.9657 9.64517 78.6711 9.15967 78.3594 8.64562C78.0477 8.13157 77.7614 7.6607 77.7233 7.59924C77.6852 7.53777 77.403 7.07375 77.0961 6.56809L76.5383 5.64869H74.8507C73.5061 5.64869 73.1664 5.65385 73.1792 5.67409ZM33.1479 6.97002C34.8473 7.1412 35.9732 8.15668 36.515 10.0069C36.6561 10.4886 36.7877 11.1286 36.8638 11.7035C36.9027 11.9968 36.95 12.5001 36.9503 12.6229L36.9505 12.7397H32.3834H27.8163L27.8261 12.694C27.8315 12.6689 27.8417 12.566 27.8487 12.4654C27.927 11.3512 28.2872 9.98006 28.7106 9.18405C29.1954 8.27262 29.9138 7.61254 30.8014 7.26299C31.1979 7.10684 31.5816 7.01913 32.1183 6.96194C32.2682 6.94597 32.9632 6.95141 33.1479 6.97002ZM9.18921 8.16083C10.4922 8.36342 11.7033 8.80408 12.9292 9.52172C13.0919 9.61691 13.2249 9.70194 13.2249 9.7107C13.2249 9.7605 12.1496 10.1895 11.515 10.3928C10.5781 10.6931 9.50087 10.9362 8.72007 11.0236L8.6014 11.0369L8.58736 10.5016C8.57963 10.2072 8.5733 9.54236 8.57328 9.02423L8.57324 8.08214L8.71661 8.09589C8.79545 8.10345 9.00813 8.13269 9.18921 8.16083ZM5.48903 9.5703C5.4834 10.375 5.4738 11.0382 5.46768 11.044C5.44415 11.0665 4.55097 10.9406 4.09149 10.85C2.84287 10.6037 1.94792 10.2172 1.72849 9.82944C1.63758 9.66878 1.72864 9.45144 1.9815 9.22554C2.41475 8.83852 3.16702 8.52469 4.17645 8.30986C4.58718 8.22247 5.25541 8.1155 5.42731 8.10965L5.49929 8.10719L5.48903 9.5703ZM53.4982 15.9101C53.4319 16.5102 53.244 17.1104 52.9353 17.7075C52.3239 18.8906 51.3726 19.7005 50.1515 20.0775C49.2409 20.3587 48.0758 20.3735 47.2666 20.1141C46.6266 19.909 46.1546 19.5259 45.882 18.9901C45.6771 18.5876 45.5954 18.211 45.5954 17.6692C45.5954 16.8076 45.8491 16.1538 46.3969 15.603C46.985 15.0118 47.8229 14.6433 49.0758 14.4248C51.526 13.9975 52.7373 13.5759 53.4119 12.9155L53.5075 12.8219L53.5136 14.2691C53.5172 15.1441 53.5112 15.793 53.4982 15.9101Z" fill="#223F3B"/>
</svg>
