<svg width="101" height="64" viewBox="0 0 101 64" fill="none" xmlns="http://www.w3.org/2000/svg">
<path d="M50.3286 64C67.994 64 82.3146 49.6731 82.3146 32C82.3146 14.3269 67.994 0 50.3286 0C32.6633 0 18.3427 14.3269 18.3427 32C18.3427 49.6731 32.6633 64 50.3286 64Z" fill="url(#paint0_linear_241_13)"/>
<path d="M50.3285 55.8825C63.5127 55.8825 74.2005 45.1899 74.2005 32C74.2005 18.8101 63.5127 8.11755 50.3285 8.11755C37.1444 8.11755 26.4565 18.8101 26.4565 32C26.4565 45.1899 37.1444 55.8825 50.3285 55.8825Z" fill="url(#paint1_linear_241_13)"/>
<path fill-rule="evenodd" clip-rule="evenodd" d="M50.3285 54.5262C62.7639 54.5262 72.8448 44.4409 72.8448 32C72.8448 19.5592 62.7639 9.47385 50.3285 9.47385C37.8931 9.47385 27.8122 19.5592 27.8122 32C27.8122 44.4409 37.8931 54.5262 50.3285 54.5262ZM74.2005 32C74.2005 45.1899 63.5127 55.8825 50.3285 55.8825C37.1444 55.8825 26.4565 45.1899 26.4565 32C26.4565 18.8101 37.1444 8.11755 50.3285 8.11755C63.5127 8.11755 74.2005 18.8101 74.2005 32Z" fill="white"/>
<path d="M50.2498 46.4713C58.2588 46.4713 64.7514 39.9758 64.7514 31.9633C64.7514 23.9508 58.2588 17.4553 50.2498 17.4553C42.2408 17.4553 35.7482 23.9508 35.7482 31.9633C35.7482 39.9758 42.2408 46.4713 50.2498 46.4713Z" fill="url(#paint2_linear_241_13)"/>
<path d="M59.3556 26.2275C61.2182 26.2275 62.7281 24.7169 62.7281 22.8536C62.7281 20.9902 61.2182 19.4796 59.3556 19.4796C57.4931 19.4796 55.9832 20.9902 55.9832 22.8536C55.9832 24.7169 57.4931 26.2275 59.3556 26.2275Z" fill="white"/>
<path d="M100.417 31.7285L88.6719 43.4737C88.0835 44.0621 87.1185 44.0621 86.5065 43.4737C85.8945 42.8853 85.9181 41.9202 86.5065 41.3083L97.1454 30.6693L86.483 20.0069C85.8945 19.4184 85.8945 18.4298 86.483 17.8179C87.0714 17.2059 88.0364 17.2294 88.6484 17.8179L100.394 29.5631C100.982 30.1515 100.982 31.1165 100.394 31.7285H100.417Z" fill="url(#paint3_linear_241_13)"/>
<path d="M0.417827 31.7285L12.163 43.4737C12.7515 44.0621 13.7165 44.0621 14.3285 43.4737C14.9404 42.8853 14.9169 41.9202 14.3285 41.3083L3.68954 30.6693L14.352 20.0069C14.9404 19.4184 14.9404 18.4298 14.352 17.8179C13.7636 17.2059 12.7985 17.2294 12.1866 17.8179L0.441369 29.5631C-0.147067 30.1515 -0.147067 31.1165 0.441369 31.7285H0.417827Z" fill="url(#paint4_linear_241_13)"/>
<defs>
<linearGradient id="paint0_linear_241_13" x1="50.3286" y1="0" x2="50.3286" y2="64" gradientUnits="userSpaceOnUse">
<stop offset="0.635" stop-color="white"/>
<stop offset="1" stop-color="#999999"/>
</linearGradient>
<linearGradient id="paint1_linear_241_13" x1="50.3285" y1="8.11755" x2="50.3285" y2="55.8825" gradientUnits="userSpaceOnUse">
<stop stop-color="#1899F5"/>
<stop offset="1" stop-color="#0E598F"/>
</linearGradient>
<linearGradient id="paint2_linear_241_13" x1="50.2498" y1="17.4553" x2="50.2498" y2="46.4713" gradientUnits="userSpaceOnUse">
<stop stop-color="#60BDFF"/>
<stop offset="0.168269" stop-color="#1899F5"/>
<stop offset="0.471154" stop-color="#0E598F"/>
</linearGradient>
<linearGradient id="paint3_linear_241_13" x1="93.4383" y1="17.3677" x2="93.4383" y2="43.915" gradientUnits="userSpaceOnUse">
<stop stop-color="#F98074"/>
<stop offset="1" stop-color="#934C44"/>
</linearGradient>
<linearGradient id="paint4_linear_241_13" x1="7.39669" y1="17.3677" x2="7.39669" y2="43.915" gradientUnits="userSpaceOnUse">
<stop stop-color="#F98074"/>
<stop offset="1" stop-color="#934C44"/>
</linearGradient>
</defs>
</svg>
