<svg width="57" height="64" viewBox="0 0 57 64" fill="none" xmlns="http://www.w3.org/2000/svg">
<path d="M38.0344 59.3272C38.0344 60.2231 38.0344 61.2156 38.0344 62.2081C38.0344 63.297 37.4059 64 36.4631 64C35.5066 64 34.8781 63.3384 34.8781 62.2218C34.8781 57.8247 34.8781 53.4137 34.8781 49.0166C34.8781 47.073 35.6843 45.4878 37.0643 44.1783C38.0344 43.2686 38.7586 42.221 38.9636 40.8701C39.2778 38.8025 38.622 37.0933 36.996 35.8389C35.3973 34.5845 33.621 34.4467 31.7355 35.1635C30.7107 35.5494 29.6176 35.9905 28.5518 36.0181C27.568 36.0457 26.5022 35.7011 25.5731 35.2738C22.1708 33.7161 18.468 35.7011 18.0034 39.4366C17.7848 41.1872 18.427 42.6759 19.684 43.8889C20.8045 44.964 21.7063 46.1495 21.9932 47.7347C22.0752 48.1482 22.1162 48.5755 22.1162 49.0028C22.1162 53.4275 22.1162 57.8522 22.1162 62.2908C22.1162 63.2281 21.6243 63.8484 20.8455 63.9724C19.8207 64.1378 19.0145 63.4486 18.9735 62.3597C18.9599 61.8359 18.9735 61.3121 18.9735 60.7883C18.9735 60.2645 18.9735 59.7407 18.9735 59.3685C17.0333 58.3623 15.093 57.549 13.3714 56.4049C3.84779 50.0504 -0.866198 41.0493 0.131254 29.5533C1.15603 17.7265 7.57798 9.60758 18.4133 5.0588C18.8506 4.8796 19.0282 4.67284 19.0009 4.20418C18.9599 3.34956 18.9735 2.50872 19.0009 1.6541C19.0145 0.675425 19.6567 0 20.5585 0C21.474 0 22.1298 0.620289 22.1435 1.61275C22.1435 6.21667 22.1708 10.8206 22.1162 15.4245C22.1025 17.1613 21.2554 18.5811 20.0256 19.7527C19.0828 20.6487 18.3313 21.6412 18.0991 22.9645C17.7301 25.0459 18.3587 26.7965 19.971 28.106C21.597 29.4155 23.4826 29.6911 25.3408 28.7676C27.527 27.6787 29.5629 27.72 31.7355 28.7814C33.9763 29.8841 36.6407 29.0846 38.0754 27.0446C39.4964 25.0321 39.3461 22.3166 37.6928 20.4695C37.3239 20.056 36.9277 19.6838 36.5587 19.2841C35.5066 18.1124 34.8918 16.734 34.8918 15.1488C34.8781 10.669 34.8781 6.1891 34.8918 1.70924C34.8918 0.661641 35.5203 0 36.4631 0C37.3922 0 38.0344 0.675425 38.0481 1.70924C38.0618 2.72927 38.0481 3.76308 38.0481 4.67284C50.0722 9.91083 57.0543 18.843 56.9997 32.1447C56.945 45.3224 49.9629 54.1443 38.0481 59.3272H38.0344Z" fill="url(#paint0_linear_241_53)"/>
<path fill-rule="evenodd" clip-rule="evenodd" d="M15.9422 9.58515C16.1674 10.0514 15.9753 10.6136 15.5131 10.8407C11.7532 12.6886 3.95948 19.6596 3.95948 32.4887C3.95948 33.0073 3.54269 33.4278 3.02857 33.4278C2.51444 33.4278 2.09766 33.0073 2.09766 32.4887C2.09766 18.8269 10.4063 11.2613 14.6977 9.1522C15.1599 8.92505 15.7171 9.11888 15.9422 9.58515Z" fill="white"/>
<defs>
<linearGradient id="paint0_linear_241_53" x1="28.5" y1="0" x2="28.5" y2="64" gradientUnits="userSpaceOnUse">
<stop stop-color="#60BDFF"/>
<stop offset="0.389423" stop-color="#1899F5"/>
<stop offset="0.935" stop-color="#0E598F"/>
</linearGradient>
</defs>
</svg>
