<svg width="83" height="64" viewBox="0 0 83 64" fill="none" xmlns="http://www.w3.org/2000/svg">
<path d="M0 8.01213C1.2068 6.30693 2.00542 6.05825 3.90436 6.83981C6.21149 7.79898 8.50086 7.63912 10.7547 6.75099C14.2154 5.38328 17.6939 4.05109 21.2965 3.07415C28.3776 1.1558 35.512 -0.17639 42.8593 0.0189974C48.5206 0.161098 54.0577 1.13804 59.5415 2.52351C63.6056 3.53598 67.5632 4.8504 71.4321 6.46679C74.1297 7.60359 76.8272 7.90556 79.578 6.60889C80.5719 6.14707 81.4947 6.41351 82.2578 7.14177C83.0387 7.88779 83.1807 8.82921 82.7902 9.82391C82.5773 10.3745 82.3111 10.9074 82.0271 11.4403C80.6428 14.0692 80.1459 16.8223 80.5364 19.8064C81.2285 25.0819 80.3766 30.1265 78.034 34.9224C76.5078 38.013 74.6621 40.8906 72.3017 43.4306C68.4861 47.5337 63.6234 49.5409 58.1928 50.3758C56.0631 50.6955 53.9157 50.9974 51.786 51.3172C46.8701 52.0809 44.421 54.9585 43.4272 59.932C43.2674 60.7846 43.2497 61.6549 43.1077 62.4898C42.948 63.449 42.2736 64.0174 41.3862 63.9996C40.5344 63.9996 39.8955 63.449 39.7358 62.5075C39.5228 61.1576 39.4873 59.7721 39.0791 58.4399C38.2805 55.8821 37.0027 53.6796 34.5359 52.4007C32.9031 51.5658 31.1107 51.2816 29.3182 51.033C26.1415 50.5889 22.947 50.2514 19.8768 49.2745C15.3158 47.8357 11.6598 45.1358 8.80256 41.3524C5.82105 37.4269 3.56717 33.1639 2.60882 28.2969C2.05866 25.526 1.93443 22.7195 2.32487 19.913C2.73305 17.0355 2.34262 14.3178 0.993838 11.7423C0.67439 11.0495 0.337195 10.339 0 9.62852C0 9.09565 0 8.54501 0 8.01213ZM41.8832 46.2548C46.3732 46.2904 50.8277 46.0239 55.2467 45.1003C59.435 44.2299 63.4459 42.9155 66.8888 40.2689C72.1597 36.219 74.1829 30.8903 73.0471 24.3359C72.8874 23.4655 72.4082 22.8794 71.6983 22.4175C69.8349 21.2452 67.6875 21.4761 65.895 23.0748C64.8302 24.0339 64.1735 24.0339 63.1442 23.128C60.9081 21.1564 58.5654 21.1386 56.3293 23.128C55.3177 24.0162 54.6256 24.0162 53.6317 23.1458C51.5021 21.2985 49.195 21.2807 47.0476 23.057C45.823 24.0695 45.2906 24.0695 44.1016 23.0215C42.1139 21.2807 39.6293 21.2807 37.6416 23.0215C36.4703 24.0517 35.9024 24.0517 34.6956 23.0215C32.8144 21.4406 30.4895 21.4228 28.5551 22.9682C27.295 23.9806 26.8336 23.9806 25.5913 22.9682C23.6746 21.4228 21.4562 21.3873 19.5041 22.8971C18.3328 23.803 17.8358 23.8385 16.7178 22.8971C15.582 21.9557 14.3042 21.6538 12.8666 21.8136C11.3227 21.9912 10.0094 23.0392 9.83189 24.3004C9.08652 29.5758 10.453 34.1941 14.1622 38.0663C17.3567 41.4234 21.4385 43.2352 25.8043 44.4253C31.0752 45.8641 36.4703 46.2726 41.9187 46.2193L41.8832 46.2548Z" fill="url(#paint0_linear_241_20)"/>
<path fill-rule="evenodd" clip-rule="evenodd" d="M67.6166 10.9215C46.7434 2.25979 24.7362 7.31955 16.3961 10.9162C15.889 11.1349 15.3006 10.9012 15.0818 10.3942C14.863 9.88724 15.0968 9.29898 15.6039 9.0803C24.2638 5.3458 46.8567 0.142004 68.3834 9.07492C68.8935 9.28659 69.1353 9.87156 68.9236 10.3815C68.7119 10.8914 68.1267 11.1332 67.6166 10.9215Z" fill="white"/>
<defs>
<linearGradient id="paint0_linear_241_20" x1="41.5" y1="0" x2="41.5" y2="64" gradientUnits="userSpaceOnUse">
<stop offset="0.155" stop-color="#1899F5"/>
<stop offset="0.665" stop-color="#0E598F"/>
</linearGradient>
</defs>
</svg>
